<svg id="Layer_1" data-name="Layer 1" xmlns="http://www.w3.org/2000/svg" viewBox="0 0 224 114.228"><defs><style>.cls-1{fill:#005fad;}</style></defs><title>sjokologo-en</title><polygon class="cls-1" points="48.107 111.467 48.107 94.561 45.318 94.561 45.318 113.971 56.873 113.971 55.748 111.467 48.107 111.467 48.107 111.467"/><polygon class="cls-1" points="77.978 94.447 69.639 113.971 72.485 113.971 78.917 98.717 82.048 105.746 77.102 105.746 78.228 108.249 83.186 108.249 85.776 113.971 88.621 113.971 79.941 94.447 77.978 94.447 77.978 94.447"/><polygon class="cls-1" points="99.242 97.065 104.821 97.065 104.821 113.971 107.61 113.971 107.61 97.065 114.328 97.065 114.328 94.561 98.105 94.561 99.242 97.065 99.242 97.065"/><path class="cls-1" d="M136.97,111.665a7.4,7.4,0,1,1,7.571-7.4,7.279,7.279,0,0,1-7.571,7.4m0-17.36c-6.289,0-10.416,4.582-10.416,9.961a9.926,9.926,0,0,0,10.36,9.962c6.575,0,10.5-4.724,10.5-9.962,0-5.407-4.041-9.961-10.446-9.961" transform="translate(0)"/><path class="cls-1" d="M174.774,110.128c-1.48-2.418-2.561-4.212-4.326-5.379A4.857,4.857,0,0,0,173.693,100c0-3.358-2.448-5.435-6.375-5.435h-4.9v19.41h2.79V96.95h1.793c2.7,0,3.785,1.112,3.814,2.934.027,1.621-.826,3.158-3.814,3.158h-.678l1.206,2.682c1.02.352,2.142,1.376,4,4.262l2.562,3.985h3.331c-1.339-1.849-1.822-2.505-2.648-3.843" transform="translate(0)"/><path class="cls-1" d="M56.112,85.571a11.374,11.374,0,0,1-7.473-3c-1.005-.883-2.056-2.6-2.967-6.65A23.256,23.256,0,0,1,33.63,79.3c-10.054.125-18.531-3.156-24.539-9.486C2.8,63.186-.569,53.239.079,43.2,1.478,21.535,16.771,4.557,34.9,4.55H34.9A25.626,25.626,0,0,1,45.6,7.3a12.131,12.131,0,0,1,2.278-3.333A6.77,6.77,0,0,1,52.785,1.82c4.52,0,10.183,2.227,11.493,12.834.184,1.5.328,3.1.48,4.8.457,5.11,1.026,11.469,2.93,12.729,1.381.913,2.7,1.153,3.621.658,1.238-.666,1.921-2.658,1.921-5.609,0-2.628-.164-5.186-.321-7.661a60.252,60.252,0,0,1,.009-11.954A8.361,8.361,0,0,1,77.9.736a8.805,8.805,0,0,1,8.347.68c3.239,2.328,5.105,6.675,6.373,11.664A14.782,14.782,0,0,1,97.8,7.872c7.032-3.788,20.013-3.738,28.721,2.945h0A20.95,20.95,0,0,1,132.28,17.6c4.83-7.336,11.773-12.24,19.837-13.146h0c5.415-.608,12.015,1.878,16.75,5.224a13.8,13.8,0,0,1,4.313-3.9c7.236-3.9,20.592-3.848,29.553,3.031h0c7.354,5.645,9.838,14.676,9.986,27.609,3.278-.807,6.206-.808,8.326.061a4.477,4.477,0,0,1,2.665,2.527,3.275,3.275,0,0,1-.087,2.893c-.957,1.656-3.551,2.38-8.315,3.209a19.277,19.277,0,0,1-2.8.281q-.157,3.074-.411,6.383c-1.807,23.841-16.952,27.471-25.988,27.471h-.224c-4.515-.029-8.877-2.258-12.658-6.388a19.588,19.588,0,0,1-12.893,7.079c-8.568,1.079-16.316-1.008-22.411-6.036a31.563,31.563,0,0,1-6.071-6.779c-5.425,10.335-15.249,12.14-21.7,12.124-5.316-.034-10.411-3.2-14.55-8.987-.1.872-.215,1.7-.343,2.485-.822,5.025-5.528,10.923-10.593,11.3-2.184.164-6.2-.651-8.515-7.906-1.355-4.24-1.261-8.046-1.169-11.727a37.07,37.07,0,0,0-.455-8.557c-.421-2.076-2.484-4.913-4.2-5.14-.28-.038-1.141-.153-1.989,1.545-1.29,2.579-1.449,8.839-1.591,14.362-.128,5.022-.249,9.767-1.161,12.079A10.485,10.485,0,0,1,58.4,85.3,9.7,9.7,0,0,1,56.112,85.571ZM47.371,74.764c.652,3.165,1.481,5.445,2.533,6.371a9,9,0,0,0,8.042,2.3A8.487,8.487,0,0,0,63.8,77.992c.788-2,.91-6.789,1.028-11.425.154-6,.312-12.209,1.792-15.169,1.27-2.54,3.024-2.713,3.955-2.589,2.85.378,5.315,4.134,5.827,6.66a39.089,39.089,0,0,1,.493,8.986c-.092,3.684-.178,7.164,1.079,11.1,1,3.147,2.962,6.853,6.548,6.578,3.775-.278,8.072-4.989,8.843-9.694.234-1.429.42-3.023.564-4.739-3.982-6.715-6.531-15.754-7-24.858-.621-12.015,1.3-21.212,4.306-27.287C90.053,10.11,88.329,5.272,85.129,2.973A6.929,6.929,0,0,0,78.657,2.5a6.39,6.39,0,0,0-3.84,5.377,58.935,58.935,0,0,0,0,11.573c.16,2.505.325,5.094.325,7.783,0,4.729-1.593,6.579-2.93,7.3-1.562.839-3.6.567-5.585-.748-2.674-1.768-3.212-7.785-3.783-14.156-.15-1.681-.292-3.267-.473-4.734-.913-7.4-4.14-11.153-9.59-11.153a4.924,4.924,0,0,0-3.549,1.585,10.258,10.258,0,0,0-1.927,2.857c4.053,2.221,7.522,5.162,9.309,7.937,1.674,2.6,1.457,4.394.98,5.442-2.512,5.531-5.285,4.726-8.5,3.792a22.123,22.123,0,0,0-4.01-.881v.1c-.058,6.178-.172,18.427.315,30a19.681,19.681,0,0,1,4.925-.178c3.244.336,5.151,2.94,4.976,6.8C55.106,65.581,52.36,71,47.371,74.764Zm85.447-9.675a30.155,30.155,0,0,0,6.329,7.335c5.759,4.749,12.807,6.639,20.951,5.613a17.776,17.776,0,0,0,11.88-6.644,34.813,34.813,0,0,1-2.613-3.765,48.628,48.628,0,0,1-4.688-10.683c-4.51,1.574-9.131,2.664-13.327-5.36-2.643-5.054-4.149-21.19,3.42-26.722a15.031,15.031,0,0,1,8.852-3.308,35.434,35.434,0,0,1,4.155-10.3c-4.376-3.089-10.548-5.447-15.445-4.9h0c-7.187.808-14.247,5.531-19.082,13.257,3.332,7.8,3.458,18.645,2.376,32.937A39.667,39.667,0,0,1,132.818,65.089ZM34.9,6.467c-15,.005-31.417,13.794-32.9,36.86-.614,9.512,2.559,18.92,8.489,25.166,5.632,5.933,13.623,8.994,23.126,8.89A23.42,23.42,0,0,0,45.238,73.75a139.6,139.6,0,0,1-1.623-16.919c-.425.086-.847.175-1.267.264-5.346,1.13-10.876,2.3-14.543-6.5C25.616,45.35,26.147,29.362,35.1,24.78a18.985,18.985,0,0,1,8.093-2.294c.007-.915.012-1.683.01-2.283A33.3,33.3,0,0,1,44.86,9.078,24.342,24.342,0,0,0,34.9,6.467Zm139.516,64.81c3.4,3.8,7.356,6.027,11.489,6.054,8.312.023,22.583-3.21,24.288-25.7q.248-3.268.406-6.3c-3.055-.272-5.383-1.411-5.928-3.125-.216-.679-.414-2.4,2.4-3.737a31.767,31.767,0,0,1,3.744-1.5c-.079-12.618-2.359-21.352-9.244-26.638-8.352-6.41-20.767-6.478-27.477-2.863a11.866,11.866,0,0,0-3.694,3.37,20,20,0,0,1,2.483,2.4c1.854,2.165,2.582,4.232,2.105,5.978-1.61,5.9-4.423,5.335-7.4,4.733-.759-.153-1.566-.315-2.437-.405a69.576,69.576,0,0,0-1.233,18.126,61.136,61.136,0,0,0,2.012,12.8,19.808,19.808,0,0,1,6.486-1.329h.035c3.112.008,5.2,2.53,5.449,6.581A19.354,19.354,0,0,1,174.413,71.277ZM95.888,67.225c3.854,6.212,8.915,10.071,14.275,10.106,6.139.055,15.555-1.77,20.474-12.156A41.8,41.8,0,0,1,125.2,47,48.846,48.846,0,0,1,131.1,19.522a19.31,19.31,0,0,0-5.741-7.184c-8.1-6.217-20.138-6.282-26.646-2.779-1.914,1.032-3.826,3.148-5.456,6.272.266,1.28.505,2.584.727,3.891C94.944,25.4,97.108,51.2,95.888,67.225ZM45.491,56.49a150.766,150.766,0,0,0,1.474,16.057c3.556-2.744,6.206-6.605,6.426-11.45.06-1.336-.136-4.479-3.26-4.8A17.951,17.951,0,0,0,45.491,56.49Zm120.968-.175a42.469,42.469,0,0,0,6.688,13.44,17.215,17.215,0,0,0,2.835-9.915c-.088-1.435-.609-4.774-3.541-4.781h-.03A18.074,18.074,0,0,0,166.459,56.315ZM91.885,18.87c-2.213,5.714-3.565,13.761-3.042,23.868a54.863,54.863,0,0,0,5.321,21.391c.779-15.868-1.175-38.8-2.075-44.086Q91.99,19.455,91.885,18.87Zm40.133,2.87c-3.562,6.642-5.562,15.178-4.905,25.131a40.213,40.213,0,0,0,4.464,16.059,38.883,38.883,0,0,0,2.138-10.523C134.712,39.23,134.681,29.1,132.018,21.74ZM163.181,23.5a13.463,13.463,0,0,0-7.28,2.914c-6.5,4.751-5.358,19.5-2.852,24.287,3.493,6.677,6.741,5.935,11.09,4.406A63.061,63.061,0,0,1,162,41.772,72.117,72.117,0,0,1,163.181,23.5Zm-120.007.91a17.145,17.145,0,0,0-7.2,2.08c-7.686,3.935-8.457,18.435-6.4,23.376,3.055,7.325,6.965,6.5,12.378,5.358.512-.109,1.037-.219,1.575-.325-.329-7.736-.473-17.638-.355-30.342ZM212.724,38.4q-.015,2.451-.124,5.082a17.686,17.686,0,0,0,2.379-.254c3.048-.531,6.353-1.188,6.985-2.281.109-.187.221-.523-.054-1.275a2.7,2.7,0,0,0-1.591-1.411C218.8,37.636,216.182,37.474,212.724,38.4Zm-1.919.6a30.826,30.826,0,0,0-2.917,1.212h0c-.776.367-1.549.935-1.393,1.424.216.681,1.724,1.553,4.19,1.795Q210.779,41.138,210.805,38.994ZM45.107,22.542a23.276,23.276,0,0,1,4.528.967c3.108.9,4.391,1.275,6.219-2.745.506-1.113-.181-2.578-.847-3.611-1.587-2.465-4.74-5.129-8.424-7.18A32,32,0,0,0,45.118,20.2C45.12,20.813,45.115,21.6,45.107,22.542Zm120.483-.877c.857.1,1.646.262,2.372.409,2.935.593,4.034.814,5.172-3.359.3-1.09-.311-2.591-1.712-4.227a17.687,17.687,0,0,0-2.111-2.054A33.719,33.719,0,0,0,165.59,21.665Zm21.947,35.593c-2.989,0-6.176-2.06-8.525-5.51-4.278-6.284-4.789-15.223-1.365-23.91,1.969-5,5.652-7.672,9.861-7.156,6.292.772,10.443,7.672,11.292,14.09,1.425,10.781-1.094,16.26-3.459,18.958A10.1,10.1,0,0,1,187.537,57.258Zm-1.052-34.722c-2.992,0-5.535,2.146-7.055,6-3.191,8.1-2.755,16.369,1.166,22.128,1.963,2.882,4.622,4.672,6.941,4.672a8.238,8.238,0,0,0,6.363-2.875c2.1-2.4,4.331-7.374,3-17.443-.994-7.513-5.594-11.944-9.625-12.438A6.406,6.406,0,0,0,186.485,22.536ZM111.522,57.258c-2.069,0-4.2-1.359-6-3.827-5.331-7.3-4.526-18.32-2.218-25.534,1.587-4.958,4.491-7.6,7.956-7.248,4.729.481,8.763,6.431,9.59,14.146,1.258,11.7-1.222,17.211-3.524,19.774A7.664,7.664,0,0,1,111.522,57.258Zm-.848-34.722c-2.323,0-4.329,2.139-5.546,5.945C101.653,39.34,104,48.1,107.068,52.3c1.411,1.932,3.034,3.04,4.454,3.04a5.723,5.723,0,0,0,4.376-2.053c2.885-3.212,3.967-9.707,3.045-18.288-.821-7.646-4.672-12.118-7.879-12.444C110.933,22.543,110.8,22.536,110.674,22.536Z" transform="translate(0)"/></svg>