<svg id="Layer_1" data-name="Layer 1" xmlns="http://www.w3.org/2000/svg" viewBox="0 0 224 116.73"><defs><style>.cls-1{fill:#ffcb0f;}</style></defs><title>sjokologo</title><path class="cls-1" d="M223.7,38.7a4.654,4.654,0,0,0-2.774-2.63c-2.208-.9-5.254-.9-8.665-.064-.154-13.457-2.739-22.856-10.391-28.73h0C192.544.119,178.645.068,171.115,4.123l-.062.034a11.057,11.057,0,0,0-2.081-1.918c-2.6-1.867-7.893-3.8-14.139,4.247A109.531,109.531,0,0,0,143.387,25.4c-.571,1.216-1.089,2.383-1.567,3.459-.957,2.153-2.132,4.8-2.788,5.338a2.578,2.578,0,0,1-.341-.526c-.811-1.547-.089-5.823.609-9.957a59.835,59.835,0,0,0,1.167-10.375C140.3,4.861,136.253,0,129.351,0a8.152,8.152,0,0,0-6,2.317c-1.629,1.633-2.712,4.018-3.33,7.5-.186-.153-.376-.3-.568-.452-9.063-6.956-22.57-7-29.888-3.063a15.892,15.892,0,0,0-5.741,5.985C82.577,7.142,80.073,2.211,75.087,1.206A8.3,8.3,0,0,0,66.05,5.719c-2.76,6.361-.553,16.134.908,22.6.306,1.353.581,2.569.772,3.586l.231,1.208c1.277,6.652,3.934,20.494,1.362,29.238-.542,1.843-2.722,3.361-5.071,3.533a3.9,3.9,0,0,1-4.058-2.171,11.568,11.568,0,0,1-.6-5.143c.091-3.461.194-7.382-4.192-10.878a7.022,7.022,0,0,0-3.226-1.56c-4.119-8.374-12.96-8.633-18.131-8.785-.89-.026-1.659-.048-2.3-.1-6.4-.569-10.211-1.867-11.641-3.97a4.926,4.926,0,0,1-.33-4.348c.614-2.075,1.5-3.394,2.71-4.034,2.127-1.126,5.222-.132,8.5.92,5.272,1.692,11.83,3.8,15.064-4.282a7.676,7.676,0,0,0-.918-6.98c-2.907-4.793-9.676-8.5-16.843-9.213-8.865-.887-15.837.9-20.722,5.325C2.546,15.206,0,22.352,0,31.9,0,48.853,14.442,49.851,23.071,50.447a21.485,21.485,0,0,1,5.21.694c3.481,1.478,5.105,5.161,4.613,7.727-.446,2.323-2.443,3.642-5.623,3.713C20.3,62.749,16.08,60.112,13,58.2c-2.221-1.381-3.975-2.469-5.889-2.023-1.375.323-2.6,1.426-3.871,3.47a10.047,10.047,0,0,0-.054,10.692c4.341,7.788,17.127,13.826,25.235,13.825h.006c8.432,0,14.929-2.041,19.352-6.063a15.524,15.524,0,0,0,6.652,4.882,27.44,27.44,0,0,0,17.049.537c6.333-1.873,11.112-5.947,13.457-11.471a14.234,14.234,0,0,0,.822-3.132c4.546,7.479,10.459,11.619,16.661,11.658h.227c5.4,0,12.943-1.278,18.6-7.287,1.083,7.053,2.478,9.591,3.8,10.75a11.168,11.168,0,0,0,7.262,3.1,8.072,8.072,0,0,0,1.9-.226c3.05-.738,5.546-3.211,7.028-6.966,1.127-2.86-.03-8.58-1.256-14.637-.992-4.905-2.018-9.977-1.519-12.533.313-1.6.726-1.815.729-1.816.063-.006,1.576-.135,6.044,8.723,3.1,6.139,10.129,15.2,16,20.63,5.1,4.716,9.208,4.661,11.753,3.785a10.074,10.074,0,0,0,5.417-4.807,15.067,15.067,0,0,0,5.939,1.285h.234c9.4,0,25.163-3.777,27.043-28.587q.261-3.445.427-6.641a20.177,20.177,0,0,0,2.911-.293c4.957-.863,7.657-1.616,8.653-3.34A3.41,3.41,0,0,0,223.7,38.7ZM28.421,82.167h0c-7.41,0-19.54-5.709-23.494-12.8a8.056,8.056,0,0,1,.009-8.671c.956-1.544,1.816-2.386,2.631-2.578a1.851,1.851,0,0,1,.417-.047c1.031,0,2.294.785,3.964,1.822,3.3,2.047,7.81,4.86,15.373,4.685,4.1-.092,6.914-2.086,7.537-5.332.744-3.879-1.8-8.244-5.793-9.938a21.192,21.192,0,0,0-5.851-.848C14.761,47.874,2,46.992,2,31.9c0-8.963,2.324-15.612,6.911-19.763,4.45-4.026,10.907-5.647,19.186-4.818,7.593.759,13.173,4.7,15.335,8.263a5.887,5.887,0,0,1,.773,5.2c-2.544,6.353-7.205,4.857-12.6,3.124-3.524-1.131-7.171-2.3-10.04-.784-1.709.9-2.916,2.615-3.691,5.231A6.867,6.867,0,0,0,18.46,34.4c1.813,2.665,5.98,4.2,13.114,4.835.7.062,1.494.085,2.415.112,5.128.15,12.329.361,16.029,6.954-.135.045-.265.095-.387.148-3.978,1.733-5.9,9.049-6.342,14.786-.369,4.838.467,10.654,3.324,15.225C42.563,80.243,36.454,82.164,28.421,82.167Zm19.612-7.219a24.077,24.077,0,0,1-2.755-13.566c.428-5.586,2.334-11.882,5.15-13.109a2.539,2.539,0,0,1,.456-.151,21.088,21.088,0,0,1,1.232,4.853C53.476,62.661,52.1,70.051,48.033,74.948ZM83.1,71.267C78.191,82.82,63.711,84.411,55.142,81.118a13.6,13.6,0,0,1-5.953-4.453l.112-.128c4.648-5.349,6.26-13.37,4.79-23.839a24.331,24.331,0,0,0-.93-4.127,7.394,7.394,0,0,1,1,.682c3.61,2.876,3.527,5.98,3.441,9.265a13.2,13.2,0,0,0,.78,6.031A5.837,5.837,0,0,0,64.4,67.874c3.186-.233,6.063-2.319,6.84-4.959,2.708-9.208-.011-23.371-1.317-30.177l-.229-1.2c-.2-1.045-.471-2.255-.787-3.656-1.4-6.214-3.526-15.6-1.024-21.368a6.31,6.31,0,0,1,6.813-3.351c1.984.4,6.124,2.386,7.7,11.828-2.929,6.319-4.768,15.646-4.144,27.694a60.042,60.042,0,0,0,5.869,23.272A19.121,19.121,0,0,1,83.1,71.267Zm1.255-9.584a59.052,59.052,0,0,1-4.11-19.1c-.5-9.687.653-17.556,2.637-23.383.077,1.092.124,2.257.139,3.5.04,3.319.284,7.879.567,13.16C84.022,44.036,84.563,54.137,84.351,61.683Zm18.285,16.9h-.208c-6.268-.041-12.143-5.107-16.283-13.022.611-7.762-.028-19.691-.569-29.8-.282-5.258-.525-9.8-.565-13.078a52.705,52.705,0,0,0-.582-7.295c1.779-3.692,3.927-6.166,6.079-7.325,6.773-3.648,19.3-3.58,27.726,2.89q.765.585,1.453,1.228a65.148,65.148,0,0,0-.308,6.958c0,1.051-.013,2.6-.031,4.534-.222,23.8.444,38.15,1.518,46.9C115.553,77.216,107.959,78.579,102.636,78.579ZM170.5,6.951c1.09,2.317.868,5.235-.638,8.918a30.874,30.874,0,0,1-3.09,3.977c-1.348,1.6-2.945,3.5-4.544,5.585C163.73,16.164,167,9.866,170.5,6.951ZM121.343,23.684c.018-1.943.032-3.5.03-4.557,0-1.607.025-3.315.14-5,6.294,7.716,6.8,20.322,5.423,38.519-.508,6.708-2.122,11.721-4.36,15.454C121.063,53.626,121.26,32.589,121.343,23.684Zm50.992,58.525c-2.915,1-6.284-.162-9.75-3.365-5.632-5.2-12.62-14.2-15.577-20.063-3.658-7.252-6.017-10.082-8.1-9.8-1.8.249-2.262,2.628-2.414,3.41-.575,2.945.443,7.979,1.522,13.31,1.061,5.25,2.266,11.2,1.353,13.51-1.235,3.134-3.238,5.179-5.639,5.76-2.334.56-4.953-.3-7.38-2.432-1.562-1.372-2.65-5.616-3.406-11.3,3.074-4.146,5.342-10.06,5.978-18.449,1.5-19.841.766-33.3-7.142-41.366.432-3.161,1.294-6.014,2.977-7.7A6.147,6.147,0,0,1,129.351,2c5.742,0,8.981,4.041,9.122,11.38a58.641,58.641,0,0,1-1.139,10c-.822,4.868-1.532,9.073-.41,11.216.219.419.847,1.719,2.133,1.654,1.687-.054,2.717-2.373,4.586-6.583.472-1.064.984-2.218,1.549-3.42A107.374,107.374,0,0,1,156.408,7.709c3.981-5.128,7.816-6.424,11.4-3.85a9.394,9.394,0,0,1,1.583,1.419c-4.448,3.581-8.408,11.588-9.641,23.555-3.231,4.731-5.891,10.014-5.655,14.785.217,4.338,3.546,8.446,7.777,12.42a51.576,51.576,0,0,0,5.273,12.444,27.608,27.608,0,0,0,9.457,9.9A8.154,8.154,0,0,1,172.335,82.209ZM159.479,41.575a65.853,65.853,0,0,0,1.441,10.681c-2.719-2.908-4.689-5.871-4.831-8.738-.164-3.284,1.282-6.944,3.351-10.49C159.317,35.709,159.323,38.559,159.479,41.575Zm18.73,32.12a15.1,15.1,0,0,1-.749,2.85c-5.256-3.117-9.805-9.6-12.71-17.922,1.07.929,2.164,1.852,3.252,2.769C173.281,65.844,178.741,70.448,178.209,73.695Zm31.934-30.4c-2.565-.251-4.134-1.16-4.359-1.868-.161-.509.643-1.1,1.449-1.482a32.155,32.155,0,0,1,3.035-1.26Q210.243,40.917,210.143,43.3Zm-3.765-5.152c-2.925,1.388-2.72,3.182-2.495,3.888.567,1.784,2.989,2.969,6.168,3.253-.107,2.1-.252,4.284-.423,6.551-1.759,23.213-16.355,26.744-25.061,26.744h-.213a12.982,12.982,0,0,1-5.1-1.114,17.312,17.312,0,0,0,.925-3.448c.714-4.363-4.664-8.9-10.891-14.148-1.892-1.6-3.864-3.26-5.689-4.958a63.553,63.553,0,0,1-2.126-13.438,80.625,80.625,0,0,1,.225-11.954c2.207-3.168,4.668-6.1,6.6-8.389,2-2.385,3.067-3.668,3.41-4.505,1.765-4.315,1.913-7.927.452-10.795,7-3.71,19.847-3.611,28.5,3.03,7.165,5.5,9.537,14.59,9.62,27.72A33.209,33.209,0,0,0,206.378,38.143Zm15.5,2.571c-.657,1.137-4.1,1.821-7.268,2.373a18.249,18.249,0,0,1-2.477.264q.111-2.737.129-5.288c3.6-.96,6.326-.791,7.9-.145a2.813,2.813,0,0,1,1.656,1.469C222.111,40.169,221.994,40.519,221.881,40.714Z" transform="translate(0)"/><path class="cls-1" d="M103.567,19.594c-3.608-.367-6.628,2.383-8.279,7.542-2.4,7.507-3.239,18.971,2.308,26.571,1.875,2.568,4.093,3.982,6.246,3.982a7.971,7.971,0,0,0,6.037-2.8c2.395-2.666,4.976-8.4,3.668-20.577C112.685,26.285,108.488,20.1,103.567,19.594ZM108.4,53.559a5.957,5.957,0,0,1-4.554,2.136c-1.478,0-3.167-1.153-4.635-3.164-3.191-4.372-5.635-13.487-2.019-24.787,1.267-3.961,3.354-6.186,5.771-6.186a4.006,4.006,0,0,1,.407.021c3.337.339,7.344,4.993,8.2,12.948C112.524,43.457,111.4,50.216,108.4,53.559Z" transform="translate(0)"/><path class="cls-1" d="M186.025,19.629c-4.377-.538-8.214,2.247-10.263,7.445-3.561,9.041-3.03,18.342,1.422,24.882,2.445,3.59,5.761,5.733,8.871,5.733a10.516,10.516,0,0,0,8.122-3.671c2.461-2.808,5.082-8.51,3.6-19.728C196.893,27.612,192.573,20.432,186.025,19.629ZM192.677,52.7a8.572,8.572,0,0,1-6.622,2.992c-2.413,0-5.181-1.863-7.222-4.862-4.081-5.993-4.534-14.6-1.214-23.027,1.582-4.016,4.227-6.249,7.342-6.249a6.767,6.767,0,0,1,.822.051c4.194.515,8.981,5.125,10.015,12.944C197.184,45.029,194.865,50.206,192.677,52.7Z" transform="translate(0)"/><polygon class="cls-1" points="45.719 113.857 45.719 96.265 42.817 96.265 42.817 116.463 54.841 116.463 53.67 113.857 45.719 113.857 45.719 113.857"/><polygon class="cls-1" points="76.803 96.145 68.125 116.463 71.087 116.463 77.78 100.589 81.039 107.903 75.892 107.903 77.063 110.508 82.223 110.508 84.918 116.463 87.879 116.463 78.847 96.145 76.803 96.145 76.803 96.145"/><polygon class="cls-1" points="98.931 98.871 104.737 98.871 104.737 116.464 107.639 116.464 107.639 98.871 114.63 98.871 114.63 96.266 97.748 96.266 98.931 98.871 98.931 98.871"/><path class="cls-1" d="M138.192,114.064a7.7,7.7,0,1,1,7.878-7.7,7.574,7.574,0,0,1-7.878,7.7m0-18.067c-6.545,0-10.84,4.769-10.84,10.367a10.328,10.328,0,0,0,10.781,10.366c6.841,0,10.928-4.916,10.928-10.366,0-5.627-4.2-10.367-10.869-10.367" transform="translate(0)"/><path class="cls-1" d="M177.532,112.464c-1.54-2.517-2.666-4.384-4.5-5.6a5.051,5.051,0,0,0,3.378-4.945c0-3.494-2.548-5.655-6.634-5.655h-5.095v20.2h2.9V98.751h1.867c2.813,0,3.939,1.156,3.968,3.052.029,1.688-.859,3.286-3.968,3.286h-.705L170,107.881c1.061.366,2.228,1.432,4.158,4.434l2.666,4.148h3.466c-1.393-1.925-1.9-2.607-2.755-4" transform="translate(0)"/></svg>