<svg xmlns="http://www.w3.org/2000/svg" viewBox="0 0 224 114.2"><defs><style>.cls-1{fill:#005fad}</style></defs><path d="M48.1 111.5V94.6h-2.8V114h11.6l-1.2-2.5h-7.6zM78 94.4L69.6 114h2.9l6.4-15.3 3.1 7h-4.9l1.1 2.5h5l2.6 5.8h2.8l-8.7-19.6H78zM99.2 97.1h5.6V114h2.8V97.1h6.7v-2.5H98.1l1.1 2.5zM137 111.7a7.4 7.4 0 117.5-7.4 7.3 7.3 0 01-7.5 7.4m0-17.4a10 10 0 00-10.4 10 10 10 0 0010.3 10c6.6 0 10.5-4.8 10.5-10 0-5.4-4-10-10.4-10M174.8 110.1c-1.5-2.4-2.6-4.2-4.4-5.4a4.9 4.9 0 003.3-4.7c0-3.4-2.5-5.4-6.4-5.4h-4.9V114h2.8V97h1.8c2.7 0 3.8 1 3.8 2.9 0 1.6-.8 3.1-3.8 3.1h-.7l1.2 2.7c1 .4 2.2 1.4 4 4.3l2.6 4h3.3c-1.3-1.9-1.8-2.5-2.6-3.9M56.1 85.6a11.4 11.4 0 01-7.5-3c-1-1-2-2.6-3-6.7a23.3 23.3 0 01-12 3.4c-10 .1-18.5-3.2-24.5-9.5a35.7 35.7 0 01-9-26.6C1.5 21.5 16.8 4.6 34.9 4.5a25.6 25.6 0 0110.7 2.8A12.1 12.1 0 0147.9 4a6.8 6.8 0 014.9-2.2C57.3 1.8 63 4 64.3 14.7l.5 4.8c.4 5 1 11.4 2.9 12.7 1.4.9 2.7 1.1 3.6.6 1.2-.6 2-2.6 2-5.6 0-2.6-.2-5.2-.4-7.6a60.3 60.3 0 010-12 8.4 8.4 0 015-6.9 8.8 8.8 0 018.3.7c3.3 2.3 5.2 6.7 6.4 11.7a14.8 14.8 0 015.2-5.2 29 29 0 0128.7 3 21 21 0 015.8 6.7A27.7 27.7 0 01152 4.5c5.4-.7 12 1.8 16.8 5.2a13.8 13.8 0 014.3-4 29.7 29.7 0 0129.5 3.1c7.4 5.7 9.9 14.7 10 27.6 3.3-.8 6.2-.8 8.3 0a4.5 4.5 0 012.7 2.6 3.3 3.3 0 010 2.9c-1 1.7-3.6 2.4-8.4 3.2a19.3 19.3 0 01-2.8.3l-.4 6.4c-1.8 23.8-17 27.4-26 27.4h-.2c-4.5 0-8.9-2.2-12.7-6.3a19.6 19.6 0 01-12.9 7c-8.5 1.1-16.3-1-22.4-6a31.6 31.6 0 01-6-6.8c-5.5 10.4-15.3 12.2-21.7 12.1-5.4 0-10.5-3.2-14.6-9l-.3 2.5c-.9 5-5.6 11-10.6 11.3-2.2.2-6.2-.6-8.5-7.9-1.4-4.2-1.3-8-1.2-11.7a37 37 0 00-.5-8.5c-.4-2.1-2.5-5-4.2-5.2-.3 0-1.1-.1-2 1.6C67 54.8 67 61 66.7 66.6c0 5-.2 9.8-1.1 12.1a10.5 10.5 0 01-7.2 6.6 9.7 9.7 0 01-2.3.3zm-8.7-10.8c.6 3.1 1.5 5.4 2.5 6.3a9 9 0 008 2.3 8.5 8.5 0 005.9-5.4c.8-2 1-6.8 1-11.4.2-6 .3-12.2 1.8-15.2 1.3-2.5 3-2.7 4-2.6 2.8.4 5.3 4.1 5.8 6.7a39 39 0 01.5 9c-.1 3.6-.2 7.1 1 11 1 3.2 3 7 6.6 6.6 3.8-.2 8-5 8.9-9.7l.5-4.7c-4-6.7-6.5-15.8-7-24.9-.6-12 1.3-21.2 4.3-27.2-1.1-5.5-2.9-10.3-6-12.6a7 7 0 00-6.5-.5 6.4 6.4 0 00-3.9 5.4 59 59 0 000 11.6c.2 2.5.3 5 .3 7.7 0 4.8-1.6 6.6-2.9 7.3-1.6.9-3.6.6-5.6-.7C64 32 63.4 26 62.8 19.6l-.4-4.7c-1-7.4-4.2-11.2-9.6-11.2a5 5 0 00-3.6 1.6 10.3 10.3 0 00-1.9 2.9c4 2.2 7.5 5.1 9.3 8 1.7 2.5 1.5 4.3 1 5.4-2.5 5.5-5.3 4.7-8.5 3.8a22.1 22.1 0 00-4-1v.2c0 6.2-.2 18.4.3 30a19.7 19.7 0 015-.2c3.2.3 5 3 4.9 6.8-.2 4.4-3 9.8-8 13.6zm85.4-9.7a30.2 30.2 0 006.3 7.3 26.5 26.5 0 0021 5.6 17.8 17.8 0 0011.9-6.6 34.8 34.8 0 01-2.6-3.8 48.6 48.6 0 01-4.7-10.7c-4.5 1.6-9.2 2.7-13.3-5.3-2.7-5-4.2-21.2 3.4-26.7a15 15 0 018.8-3.3 35.4 35.4 0 014.2-10.3c-4.4-3.1-10.6-5.5-15.5-5-7.2.9-14.2 5.6-19 13.3 3.3 7.8 3.4 18.7 2.3 33a39.7 39.7 0 01-2.8 12.5zM35 6.5C19.9 6.5 3.5 20.3 2 43.3c-.6 9.5 2.6 19 8.5 25.2 5.6 6 13.6 9 23.1 8.9a23.4 23.4 0 0011.6-3.7 139.6 139.6 0 01-1.6-16.9l-1.3.3c-5.3 1.1-10.8 2.3-14.5-6.5-2.2-5.3-1.7-21.2 7.3-25.8a19 19 0 018-2.3l.1-2.3a33.3 33.3 0 011.7-11.1 24.3 24.3 0 00-10-2.6zm139.5 64.8c3.4 3.8 7.4 6 11.5 6 8.3 0 22.6-3.2 24.3-25.7l.4-6.3c-3-.2-5.4-1.4-6-3-.1-.8-.3-2.5 2.5-3.8a31.8 31.8 0 013.7-1.5c0-12.6-2.3-21.4-9.2-26.7A27.7 27.7 0 00174 7.5a11.9 11.9 0 00-3.7 3.3 20 20 0 012.5 2.4c1.8 2.2 2.6 4.3 2 6-1.5 6-4.3 5.4-7.3 4.7l-2.4-.4a69.6 69.6 0 00-1.3 18.2 61.1 61.1 0 002 12.8 19.8 19.8 0 016.5-1.4c3.2 0 5.3 2.6 5.5 6.6a19.4 19.4 0 01-3.5 11.6zm-78.5-4c3.8 6.1 8.9 10 14.3 10 6.1 0 15.5-1.7 20.4-12.1a41.8 41.8 0 01-5.4-18.2 48.8 48.8 0 015.9-27.5 19.3 19.3 0 00-5.7-7.2 26.8 26.8 0 00-26.7-2.7c-1.9 1-3.8 3.1-5.4 6.2l.7 4c1 5.6 3.1 31.4 1.9 47.4zM45.5 56.4a150.8 150.8 0 001.5 16c3.5-2.7 6.2-6.6 6.4-11.4 0-1.3-.1-4.5-3.3-4.8a18 18 0 00-4.6.2zm121-.2a42.5 42.5 0 006.6 13.5 17.2 17.2 0 002.9-10c-.1-1.4-.6-4.7-3.6-4.7a18 18 0 00-6 1.2zM91.9 19a58.7 58.7 0 00-3 23.8 54.9 54.9 0 005.3 21.4c.7-15.8-1.2-38.8-2.1-44l-.2-1.2zm40.1 2.8a46.4 46.4 0 00-4.9 25.2 40.2 40.2 0 004.5 16 38.9 38.9 0 002.1-10.5c1-13.2 1-23.3-1.7-30.7zm31.2 1.8a13.5 13.5 0 00-7.3 3c-6.5 4.7-5.4 19.4-2.9 24.2 3.5 6.7 6.8 6 11.1 4.4a63 63 0 01-2.1-13.3 72.1 72.1 0 011.2-18.3zm-120 1a17.1 17.1 0 00-7.2 2c-7.7 4-8.5 18.4-6.4 23.4 3 7.3 7 6.5 12.4 5.3l1.5-.3c-.3-7.7-.4-17.6-.3-30.3zm169.5 13.9l-.1 5a17.7 17.7 0 002.4-.2c3-.5 6.3-1.2 7-2.3 0-.1.2-.5 0-1.2a2.7 2.7 0 00-1.7-1.4c-1.5-.7-4.1-.8-7.6.1zm-1.9.6a30.8 30.8 0 00-3 1.2c-.7.4-1.5 1-1.3 1.4.2.7 1.7 1.6 4.2 1.8l.1-4.4zM45.1 22.5a23.3 23.3 0 014.5 1c3.1 1 4.4 1.3 6.3-2.7.5-1.1-.2-2.6-.9-3.6a24.5 24.5 0 00-8.4-7.2A32 32 0 0045 20.2v2.3zm120.5-.8c.8 0 1.6.2 2.4.4 2.9.6 4 .8 5.1-3.4.3-1-.3-2.6-1.7-4.2a17.7 17.7 0 00-2-2 33.7 33.7 0 00-3.8 9.2zm22 35.6c-3 0-6.2-2.1-8.6-5.6-4.3-6.2-4.8-15.2-1.4-23.9 2-5 5.7-7.6 10-7.1 6.2.8 10.4 7.7 11.2 14 1.4 10.9-1 16.3-3.5 19a10.1 10.1 0 01-7.8 3.6zm-1.1-34.8c-3 0-5.5 2.2-7 6-3.3 8.1-2.8 16.4 1.1 22.2 2 2.8 4.6 4.6 7 4.6a8.2 8.2 0 006.3-2.8c2.1-2.4 4.3-7.4 3-17.5-1-7.5-5.6-12-9.6-12.4a6.4 6.4 0 00-.8 0zm-75 34.8c-2 0-4.2-1.4-6-3.9-5.3-7.3-4.5-18.3-2.2-25.5 1.6-5 4.5-7.6 8-7.3 4.7.5 8.7 6.5 9.6 14.2 1.2 11.7-1.3 17.2-3.6 19.8a7.7 7.7 0 01-5.8 2.7zm-.8-34.8c-2.3 0-4.4 2.2-5.6 6-3.4 10.8-1.1 19.6 2 23.8 1.4 2 3 3 4.4 3a5.7 5.7 0 004.4-2c2.9-3.2 4-9.7 3-18.3-.8-7.6-4.6-12.1-7.8-12.4h-.4z" class="cls-1"/></svg>